<mxfile host="app.diagrams.net" agent="Mozilla/5.0 (Windows NT 10.0; Win64; x64) AppleWebKit/537.36 (KHTML, like Gecko) Chrome/134.0.0.0 Safari/537.36" version="26.1.0">
  <diagram name="第 1 页" id="yMu4m2TRq5zxjS06PLWN">
    <mxGraphModel dx="1885" dy="1005" grid="1" gridSize="10" guides="1" tooltips="1" connect="1" arrows="1" fold="1" page="1" pageScale="1" pageWidth="827" pageHeight="1169" math="0" shadow="0">
      <root>
        <mxCell id="0" />
        <mxCell id="1" parent="0" />
        <mxCell id="SiixUEzhRw_7kAcvaBEe-1" value="" style="rounded=0;whiteSpace=wrap;html=1;fillColor=#dae8fc;strokeColor=#6c8ebf;" parent="1" vertex="1">
          <mxGeometry x="149" y="60" width="531" height="410" as="geometry" />
        </mxCell>
        <mxCell id="SiixUEzhRw_7kAcvaBEe-2" value="header:AI管家" style="rounded=0;whiteSpace=wrap;html=1;fillColor=#1ba1e2;fontColor=#ffffff;strokeColor=#006EAF;" parent="1" vertex="1">
          <mxGeometry x="149" y="60" width="531" height="30" as="geometry" />
        </mxCell>
        <mxCell id="SiixUEzhRw_7kAcvaBEe-3" value="logo" style="text;html=1;align=center;verticalAlign=middle;resizable=0;points=[];autosize=1;strokeColor=none;fillColor=none;" parent="1" vertex="1">
          <mxGeometry x="150" y="60" width="50" height="30" as="geometry" />
        </mxCell>
        <mxCell id="SiixUEzhRw_7kAcvaBEe-4" value="" style="endArrow=none;dashed=1;html=1;dashPattern=1 3;strokeWidth=2;rounded=0;exitX=0.086;exitY=0.027;exitDx=0;exitDy=0;exitPerimeter=0;entryX=0.584;entryY=0.947;entryDx=0;entryDy=0;entryPerimeter=0;" parent="1" target="SiixUEzhRw_7kAcvaBEe-3" edge="1" source="SiixUEzhRw_7kAcvaBEe-5">
          <mxGeometry width="50" height="50" relative="1" as="geometry">
            <mxPoint x="100" y="40" as="sourcePoint" />
            <mxPoint x="440" y="240" as="targetPoint" />
          </mxGeometry>
        </mxCell>
        <mxCell id="SiixUEzhRw_7kAcvaBEe-5" value="點擊這個logo會回到主頁面，功能類似於youtube網頁的logo" style="text;html=1;align=left;verticalAlign=middle;whiteSpace=wrap;rounded=0;" parent="1" vertex="1">
          <mxGeometry x="162" y="110" width="200" height="30" as="geometry" />
        </mxCell>
        <mxCell id="SiixUEzhRw_7kAcvaBEe-7" value="登入🔻" style="text;html=1;align=center;verticalAlign=middle;whiteSpace=wrap;rounded=0;" parent="1" vertex="1">
          <mxGeometry x="605" y="90" width="60" height="30" as="geometry" />
        </mxCell>
        <mxCell id="SiixUEzhRw_7kAcvaBEe-9" value="google登入&lt;div&gt;line登入&lt;/div&gt;" style="text;html=1;align=center;verticalAlign=middle;whiteSpace=wrap;rounded=0;" parent="1" vertex="1">
          <mxGeometry x="595" y="122" width="70" height="30" as="geometry" />
        </mxCell>
        <mxCell id="SiixUEzhRw_7kAcvaBEe-12" value="登入前--" style="text;html=1;align=center;verticalAlign=middle;whiteSpace=wrap;rounded=0;" parent="1" vertex="1">
          <mxGeometry x="530" y="115" width="60" height="30" as="geometry" />
        </mxCell>
        <mxCell id="SiixUEzhRw_7kAcvaBEe-18" value="中間可以放&lt;font style=&quot;color: rgb(255, 0, 0);&quot;&gt;介紹 或者圖片&lt;/font&gt;等資訊" style="text;html=1;align=center;verticalAlign=middle;whiteSpace=wrap;rounded=0;" parent="1" vertex="1">
          <mxGeometry x="327.5" y="240" width="174" height="80" as="geometry" />
        </mxCell>
        <mxCell id="SiixUEzhRw_7kAcvaBEe-19" value="在登入後跳轉到&lt;font style=&quot;color: light-dark(rgb(255, 0, 0), rgb(237, 237, 237));&quot;&gt;user_console頁面&lt;/font&gt;" style="text;html=1;align=center;verticalAlign=middle;whiteSpace=wrap;rounded=0;" parent="1" vertex="1">
          <mxGeometry x="577.5" y="150" width="105" height="35" as="geometry" />
        </mxCell>
        <mxCell id="HlHNbVP3MBCUmD84So4u-1" value="登入完成之後這裡&lt;div&gt;&lt;font style=&quot;color: rgb(255, 0, 0);&quot;&gt;會有一個預設的AI聊天小視窗&lt;/font&gt;&amp;nbsp;&lt;/div&gt;" style="text;html=1;align=center;verticalAlign=middle;whiteSpace=wrap;rounded=0;" parent="1" vertex="1">
          <mxGeometry x="400" y="430" width="164" height="30" as="geometry" />
        </mxCell>
        <mxCell id="VPiFKiOyVi2eUJVmZOCR-39" value="" style="group" vertex="1" connectable="0" parent="1">
          <mxGeometry x="605" y="185" width="50" height="120" as="geometry" />
        </mxCell>
        <mxCell id="VPiFKiOyVi2eUJVmZOCR-36" value="水族箱&lt;div&gt;管理頁面&lt;/div&gt;" style="rounded=0;whiteSpace=wrap;html=1;fillColor=#fff2cc;strokeColor=#d6b656;" vertex="1" parent="VPiFKiOyVi2eUJVmZOCR-39">
          <mxGeometry y="75" width="50" height="45" as="geometry" />
        </mxCell>
        <mxCell id="VPiFKiOyVi2eUJVmZOCR-37" style="edgeStyle=orthogonalEdgeStyle;rounded=0;orthogonalLoop=1;jettySize=auto;html=1;" edge="1" parent="VPiFKiOyVi2eUJVmZOCR-39" source="VPiFKiOyVi2eUJVmZOCR-38" target="VPiFKiOyVi2eUJVmZOCR-36">
          <mxGeometry relative="1" as="geometry" />
        </mxCell>
        <mxCell id="VPiFKiOyVi2eUJVmZOCR-38" value="登入" style="rounded=0;whiteSpace=wrap;html=1;fillColor=#60a917;strokeColor=#2D7600;fontColor=#ffffff;" vertex="1" parent="VPiFKiOyVi2eUJVmZOCR-39">
          <mxGeometry width="50" height="45" as="geometry" />
        </mxCell>
        <mxCell id="VPiFKiOyVi2eUJVmZOCR-40" value="" style="endArrow=classic;html=1;rounded=0;" edge="1" parent="1" source="HlHNbVP3MBCUmD84So4u-1" target="VPiFKiOyVi2eUJVmZOCR-41">
          <mxGeometry width="50" height="50" relative="1" as="geometry">
            <mxPoint x="540" y="420" as="sourcePoint" />
            <mxPoint x="610" y="490" as="targetPoint" />
          </mxGeometry>
        </mxCell>
        <mxCell id="VPiFKiOyVi2eUJVmZOCR-41" value="與AI管家聊天" style="text;html=1;align=center;verticalAlign=middle;whiteSpace=wrap;rounded=0;" vertex="1" parent="1">
          <mxGeometry x="605" y="430" width="75" height="30" as="geometry" />
        </mxCell>
        <mxCell id="VPiFKiOyVi2eUJVmZOCR-42" value="AI聊天小視窗" style="rounded=0;whiteSpace=wrap;html=1;fillColor=#60a917;fontColor=#ffffff;strokeColor=#2D7600;" vertex="1" parent="1">
          <mxGeometry x="606.5" y="470" width="73.5" height="60" as="geometry" />
        </mxCell>
        <mxCell id="VPiFKiOyVi2eUJVmZOCR-43" value="" style="group" vertex="1" connectable="0" parent="1">
          <mxGeometry x="690" y="115" width="186.87" height="30" as="geometry" />
        </mxCell>
        <mxCell id="SiixUEzhRw_7kAcvaBEe-13" value="" style="shape=image;verticalLabelPosition=bottom;labelBackgroundColor=default;verticalAlign=top;aspect=fixed;imageAspect=0;image=data:image/png,iVBORw0KGgoAAAANSUhEUgAAAgAAAABoCAIAAAAIIt+zAAAgAElEQVR4Ae19B3cbR7Ku//q7991d79prW5YtWZEiJYo5kwABAswECZLIOeeccwbeqaqexhAAKUr2fRbF0ZkzGg6Anp7q6qqvQld/pwwPlJFJh3SfyCLRQaKDeIJI/CDxwzfED99x6b+HbyU+00fiO3Qt3ZfoIOYKiR8kfpD4QUyBB8QP3zELgHCNdJYoIFFAooBEgUdDgVELQIzmpOtxTS7RRKKJxAMSD3wzPDBUAPRK0lmigEQBiQISBR4JBUAB7AmHdE2kkOgg0UHiAYkHHgMPSBbApAwocZRfupYoIFFAosA3SgHJAmAG0GPQ9tI7SqhW4gGJB8Q8IFkAkgUgUUCigESBR0qB70gfwjk6DAZI14wsEk0oPiTRQaKDxAPfIg9IFsAj1fyPJMlBek2JAhIF7qCAyAIQcoGGNoF0R6KARAGJAhIFvl0KsCAwhQWks0QBiQISBSQKPB4KoAVA3j3pLFFAooBEAYkCj4kCkgUAMQBa2i6dJQpIFJAo8KgoIIoBkN4jb5d0LdFB4gGJByQe+NZ5QKQA6FWls0QBiQISBSQKPA4KDGMAKtL2eJauaSWERAeJDhIPSDzwDfOAZAGIlr89Dp0vpflKFJAoIFGAKDC0ANjqX5EdIN2RKCBRQKKARIFvmAKSBSBZABIFJApIFHikFAAFAB6uKJ6la4kOEg9IPCDxwKPhAckCeKSaX/KBShSQKCBRQLAASOfjWSXWftJ9EQXIWpLoI9GB2c3SfBHNDmlePMR5IVkAkgUgUUCigESBR0qB70hvS2eJAhIFJApIFHhsFJAsgEeq+SXvp0QBiQISBb5TifyYN7SfdB9jIRJ9GFdI/CDxA1FAosM3RAcMAuMKWJV0liggUUCigESBx0QBKQYACyCkQ6KARAGJAo+QApIFADGAb9L6UYb7e+H+xPM3+b40jhPfd4QOD3rER95l5H2/4ZF90KP21Y7LN2sB7EX69zm+WOfzxr+4BSwx+Jd1kvfniy/u8yJ3NH6fn0/8zsQ2J35z/ObE337ZzfHGv/jOF3Tgtmd9QVMjP5nY8sh3PuvPiQ1+kzc/iyz8y/cnBf/JxIv7t/NnvikEgSnE9zDPQL4wStLbzqHeXri3N3K++SsW7L2dAp9+SrgPI3F7CyDxb+uh+L64n+L7n7wef0e8owx1lcGuMtQdpQD//ljL/C1ufevbf8vf8W5qjLZ8+1uPtMPbZy3wnohbCPX4W3/Wu488i9PhPvdvvNEtvfokH46+HXGpqLWR96K34+cb7d/k8Akt36TYjd+Knji8f5NP7kOTB/edCVS6+dY3RjnSH86pW6jNKXBry+OjcMsTP4sb+XPv/tXDtgBgMPgRRik/doYJc8sBnB3uDVuIoAQfCwmIv8B+MvIU3odbWhgF+yM/D6O0uqWTILj590UPGvYKPxW/oyLYuc/Bf/KJ9oGzh7Tlv+IX4k/Z9c1+Ai/ePFjnb292YjvDV6b2v/TFFcEO7/yQvKI+j/T27j9v9OqWNxofDt6BG9QT9UF8n7483shtd+j74hYmXvM+3PPiRiOirt5Nnwf06XAoReN4461F98eJduObIvoMm705lfbunPh3tPYXkhQtAHSCg6J4OAeoU36EAN0DCLp5KAIdfuwG2iMHfUQ/ATUOepi1KaYDv0nfGXkE//OOFsD9J7Q80gjv3icvRh9EHRa9OLXA3tHf2r3PgTSZQAdR4/fvMO+hMoimxk2SDilApBAeQb8af33e2ghhWTv3e3G5r8mPUYII/KAIdOhZIw8S88Bt18OXuuV17hqOsQ7coNvEF8Qx5W80fjF8x0BbPKycmPziBrcIPaHejn8kHh3ewheQ6zYy/u33h+MYRkQvCBPxi9//epREAm+MTCVlsMvbnCiaOGfeYAwuScL9v4RuD9ICGGpUEQYkNLQbbA+PQGsXD7m/OX7QR7vBNseDTOWOq+47n0LPHWIu4edcS7Pe3myEdVLo4X36SV3lvaUnDt9aeFOZryHzNXa8dXZ4ajviQ7hPX5P7m+N0GIE2w0cE27uB1h2UpJcaJchNG4vjGmWoO2z5Jh2gSzgu/GX5r+iCvzs8UejSXW/NKYCvz9+dvf4tPMBHcOKFmAl5fxTBDnVJ3Ct6HO8e/5MoSS8r5sPx1uT+Jv85H81td5UOfgcuvHWZryFumYjMz5zxxsfx7jtiPqFxGZkvE6n09d8UjyNB8iFbInexFx9nUWHGDalN30ERxFlXPJvGW76N5pzaIxOBGaxjQuaL6fwgYwCgsdH7pgx1z2Ldw0gHVSjAXiCoD8S9zNvYDzW10SbIQTcIwV1vTRNpbLtg2sAdb13mhakCuCkIiAmGKkj+FlFEAT10oK6D+JRgW/wUuQ8FqKgF0PMg60UtgNJGGwV7a0h390hm+XBWe1BS0xn7Sb0dnr31HQ/OatGz4H2BO0H8UX9kXhT67tq2u7rlrGy5KpuO8qazDGdHSTjYnS1XZctZmUiH3QBoRMAmeIan+EGPynlvPbVh3+ha6OGQnjATULNOij2A6Mf2dwNtQ6rjyXePw80dER1uawewFY4RG4ubvdp2VW95a+H1kRp3vDvxgHgEAWRNiusMxzcMpqeYVsR7xHUgoJHfaETE521XFeQ18iFxLI0ppwxRnrXmqQ3fDkdzw1HcsBfFZzbEzjIb2RGeQT75xDiOjyy/g6MzHJdb5stEWt1Gw6/hvngcwYuAnLkbbB+F20fhlsyLWOomZ4L+prnG7wvjyOcplyp8No3PVpmvofDWr+PNo2CDcQKntiCdQJejNCMZxecUyROQgfeIO95NZ7AA1OiffShnFWo/FbrP9Oleo9Nvdvu2bEeOsFcGwqgm84AcDBbb/cGg1x94c61Yqd3t9dvdvjFR33QUNx2lLWd5y1XZcVd3vPVdBMIKRIJ76HNXIWCn816o6y/2YhU8yt1ouRsudc4iDRkBLsRc0EKwrUTnMvst9RO9ftRbZbCTqvUG2CVXto3SAST1lhPk8paznK52BoNBp9fXx+vQQ5zqw356ajLhWchhTXOmE8P+RMudaLkTKbXpCBdb7Cg0Q4Vm+OaZf2pPNYgO2+4qvYvc19gNtBQIZOi8i9hT5q2HS9C3Xn/gzrZQ1oD04T3cdJZ18cauFyi/463LEYRCCwJN9jDCsYeoX4kwWRFoXcVbjU5/MBj0B4NwsU1vuu0CzTSxHUBVwQ6NRbTc5e8++uI333eUAkicSKnty7cO/IAGZJ6azNcYHcFIX4URnfF5wTiQ/LnMjiFN3DSlWjQWk4eDj0uxFSy0ToLVTWd521UBjvXWaUyJ/ppYO1vvlVv9crNXavZKje7IUWx0Ro5So1uod0zx2rq9ABzuLANvCzwjR7tQ5q27c+1ef3Qc2YwgfnOUgBv5Nc4U6icfF5ovQ25HWu1F+uO0+srv7FHPwz2aoYpg25nrNjv9/mCQqnb5DN12wTzddlVOQjVDojHxOAnVmDwRaL6LjgcFoj26ZjIKpVOgAAMxGAwKja7cDShtSHOUBsPWbs4pRbBDswnkzO1cek/KPzALQKyxT6LdUgtJOBh0+wN3rr3lrHDMu+MslZrdwWDQ7vavwhVXug6jOhgkSq0Vc2bVnF2z5tZtBZSANAPRGhBwK8fshO8qwoOgCZSDzkyTnoXjRFIPdMANFCnE9wlZHEfbNVBJg2a3fxmtb9iL6/bCuq2wZsuvWXJr1ly60iYFcB2prJqzq5Ys9XPNmt8gpQVcOESOJJSpS19wTlfa8FxbfsMO8oK1jMhxiH0Qe246y6Ei9K3XHzjT9VVzdsWcWTFlOCUNsWq72y80uidBsD/AthAjUMGq4DhI7msehRqlJqhD+ldqdNW+8rqtsG4vQH9A7oy1g7bIyFgIDXz2//V27zRYgQcBDiAdwGxBbsONoycxByqDXW8RxHSp1bem2zueGlHpPl3p9PrX0aowsoRFmFUq8zW0MaYa79MU/06v17cnqyvG9KolK26ZrBCyIdzZFimAkXEM5pu8nYkX9XbvjGkswEwyL2EFsJvBZkI0ivJoss00Tsm//Q7v8xD7B1qc8s1u/zxU5TOUODNUaE0kzmAwCOab67YCzlMYTT6bwBb0ACrdQeucLPINe1HtK5OA4nOK5juMHc5KoTXUx6K5IPZYcMp/se31wCwArrEJS55G27kGEyIITpsbdpCn69acMVbtoIbNVtuLhoTcli43AMM2Or1jT3ZRH182JFdM6TVLdt1e2HKUAN0gCuN2AHI2+anbFRTcfOxhzDKNDTtIqyHaIktCwLzcekCvRWc30LJl2l1UQsVG15cTsHm+EcIjmKtTD7u9frTQCObq/AjlG+FCUxetrttAE5DFsO2q3F/c8J6LL5Ll5hISYdWSXbflUeaWT8MA9kdgbLjYytWAev3BoNrqFuptfljj5RNfvtYCXdvHabBmy28xqQqSYmgNoG2BPrqGWPozHT4YFBudPVd+1Zyh/tC4bLkqYmtA7muMjIX4jT7rut7unfiLa9YcjSDZAYpAixDWXrhHSH8ESY1wYLTCTDrEH2UuILq9fueWo4ts2en1L4NF4sA1IL4Is3tqF7Em2UadXr/U6BYbHU7wQq2Vr7VGztUm2me9vjVWWtDFlgwJ3rI+VqOJcAdxOr1+rNi44wswcdq900B5Axi+BFbLOLf/aTT6/9kbIfYlGNLdaKWHNmWHcEl/MMhU22A95xvOVG3FlF4xpQO5W6kUyDVWzJk1SxYRFSFLgE1kw8H5phlXbHRo1gAi7PRofEesumKjU2p04+U2nwtDj4VYzvwJygsWAGXpkcfzK74GpY3ef4q2yf1Nhbcer6AfYTCoNLtHvuKyMbVkSGYqoKu7vb47VdF4sxpvJpitokeo70mVNd7MuT934c9fBApKJ6DvDXsRkCCzxEEKsCMAYT25H2IJW86KN8dsAT+ONwy5YEkA7AV5h3YAJRqizxod1uBPjFeYlAzlm/X2EPzePfH4p/5sfcWUBpvAlgdgYi+QuOn1B45UbcmQXNDF5q4iH7WhD+cBT6oMgL3XN4Vy06cedpx4Zs68p+5UuwtPT5Qac1cRlBdJ9iL2gj5W/6S84F0aDAa+dCVfY7AoWWqumkCtogTHOcD8G+BLpWPHUz+PNiot9vrNTs8YqxRRNw8Gg1Kjc+jJcbXErRMYGsFDCkEOjHCs2wtr1tyKKb2oT8xfR+cuw7MXQbU90WgDnVud3pEj/u7YRcf0sXv6FF7/g8Y/ex6cuwzPX0cXDYkVYxpG34Gj70E/TLA9RLWU1yuaF2ABoHuQ4hCRMjyr1x+4Ms01W55wdK/Xt8XLNBaz58EP5wE4NH46vOkKGqa9c3+OEV/oA/rWAD9qwjXikHKzu2RIzl9HP16EPmj8M2fe6RP3uyPX1JFz6tABx4Fj6sjpThRpuM2R/IfzwNxleOE6BmQ0Z66jDAmJR23kut3tXQVyGl/23J879+d0oUIdaVhudnCO5C8CeY2/sG5OA58gVth2VcFvhvqSRc6Yz1OU8iuiG8P7X5NsYcIk3FMEOr5ijxwyI5ShP0uNzsJ1bEEX82drZKNfBPILutj8ddQWL9Mv/dnaoi4+ZF1Lbt1eIKfuxDbvf7PU6NwmZ1hMGCOOLA78mTT/To0xgIdyBrcsBFS7gNMDLfD4u6tbjlK42Kq2uqe+wqI+vnAdPfflWp17SViaqyvG1DoiwW1XRYbQBpFgG60BeBA47/BBHOJFCo0lQwLMCGNq1ZxZR9i7467KfQ36LXhI8VBAHLWpiTZrKPTb3b4hWq4jZL4/E4CozVQXdTEyXFYRa3BxY09UFq6jc9rQrMb//sw7c+LmEsEYzLzdt9ExdWCfOrCfOOJMARTrsxr/nDa0cB1d1MdXjKk1S/Y6Um10euPolXAr6dR2t0dHp9urtwB7giuz1to2Rucvw9RJoskm2is75GcHCV61pZstsoMQ+FyHS4v6+LEnW0YMS2joOgTjSG+6DroZTLQtdJeDNxY91GB+WXMrxtSiPj5/Ffl4Efyg8c2cuD3JIpkU4Uz5tdryWmWGQ215s299u2+bOnS8O3LOnLg/aHwfL4LzVxECyyPDp0Q3qwqNgJGpwTlQCUHylkgBNAAhZuskiC2RwgeNj8Zi+tg1fex6d+R8d+ScPnbR0LS7PY0nTX0A4qMxivgaIiuaULWB3NLHmBAn+G0XHdTovV7fGMzwt1u4jsLbGVOEXlcAGCVIYPV6fXMkP3Pipr5NH7tmTtwzp573oCB9KnuC+LNYb8+eB2bPA3Pa0PxVhEZ2zZKFEXGWZZ7arr+pCLb3Ql2ilQrDACMU+zr/hHEUhIky2HHnu63uBKONCJ6rtmbPAx8vgtECjC+MnTfz8SI4ex6wRAqkALzpyvxlmFOJxAI5dWnWjMyp24aS3+/0yGkNqIjGEdwVN+WMmFG/jPiCBUB64+s+M58dauzdYPs60TYmW4Z44zpavQqXtcGixpdbN8Y+nAcSRRin+/zr9fqWaHEBBGsKvQHkCxpmB1GOzY6nvuWqbNiL5AkZDAapcnPuKjJ/BaKToBZEFCDyxrzJPDNE7gPrwZNr0XiWGp35q+jsRfD9mW/61ANo7tDx9sD+Zt8WyzFseGANv1AYX+6ZXu2ZX+9b3x7Yp0/c7898sxfBucsIPXHZmPIL4sYaK82eBwEeHrunDh1v9m3OWJ4kkc6XfKEwvNg1vFAaqc0DS5gUQCxfnT52z5x5ARHD9MYXMQLKA/++Kb1kSC7q43OXETApkiVqUO9PvVSaXiiNi6eORKFKRK422kpz+N2RCyD2eQBa05MXAsA1AFtnec9TiZeHrrQKKOw8IHdt+KM2pLIni3UIM9BsCWZry7rYIqjYFMAfxFM872XbWdSGKjTo5/6cxpM5daeOHfFLb7LJ4H/3yhNXmwL82DcH9y2hA0v40BY5tEXXrvwzp9jVy8iiIbFqRk+gkzwbYP/xfDCxd3WEA+W+Jo+NO5K1RUPCnwGE2Ov1nfHisSN+5Igd2aJH9uihNQLPxbM/BZRsd3snzsSwD6CAme9+3V44DZS/wEbs9fo6X/K12jp15Jw59RK3LOhiKmdWGyxe+PPn/pw7CYi11+s7YvlDa+TAGj6whNe0ntcqy5t929sD+9SRU2GK1FCvF2stspzen/lgWLXh8ZmCUethJOBv9+yLx+uOaxbLCfXIkpP7m9uu6qajtGbNr5jSC9exucvwh/PAe41v+gQNaLQgSbDA2LmSdN8UypEC8CRLnEpgXOrii4ZEqgzGMaBMgGhooF+AgU5zH2brkXPqAKY/P9Cwc747dinMUTYK9TZRfkTOQNZAQGStflFG0EOyAEhpQwQcwde4L7jd7Z25U5e+NAGiwWAQy1VeKAx/yHXPZdeRDEy8aqO1ceF8Lrt+oTC8VlumDh3vz7wfL4KLutiKKc2hDeTD+JuQxwJ5pZDws+UonQbKhMsG4G7qbJtigOAEzLtmyW46iqM2BFoPSl+92ABfAXk5PoL0976Dsbe/Vlte7ZlegnQ2RLPgt2l1uiqD79nOJRyyqz/kupdKI3V15tQzex6YBwM/uigYpKDDIoX3IP1db/dtr9WWl0qjI5olzrv2xHlTz2RXz2XXalOAKYBc5e2+7d2R8z3oAGh2Ed3Hy4bksiG5ZEgs6mLzl+FZjX/m1OOOF4YNyq7mDs3JAqirwWBQa7bVpsCwkyduaI2Da2tux1l0pBsc+A8Gg0ylpXZmmNVyHpgF94hvyxBJijR3pdnRiUwBgD/gbcuv2/Kn/hIfCOrDZ517vb4hkKYXn9OGaOgBW01CtWIAO8KB4uQoe7K6cB0l9859OtPu9o7sUerDx4sgQ+sUlLLmTvxFesF6u+tLl73JoidRcMdyrmjWGck4wumRI5FjHr9rT/yl0vhm38pbnr8M+zJMT9/WMUck82JX/0JheLVneq22yPQBEj2FapNspuljF2MSHNZVc2bDXiBWVwRaYhwqJtfXfM0tABImcl/DlGxCglyhGczVA5mqP13xpcu+VMkVL2zrAlMH9m1doNIAjFJptLd0AfS/2Y3BDCkAd6IIhtSpZ1bjJ7GwcB1NliG0Tm4GmErgCfTNnHqmjxH27dve7FvJTn0FaM9E1uprteXtvm3XGOJqmE9P7qvgzgZlsAPm1yRr9T70f0hBYAjaMP9PZ9ffLAt+ZM7W7W7v3J3MV4f5DNFs+fdt7dPN86cbmnAaRFil0Vo9sz7dPH+2c/nHrv61yjx15Pyg8c1dhpcNyVVLlgLCFLqk5C2Ztw5+Z0fJmqxxT0ir0zt2Jt9rfGAgX4bJiodQKgoRllaI+mPHW3dmWvyHxXp75sx7ZI/VWh0y91qdLh1dNOQBHgp3+EfBVPGVyjx16JgmDtOG7jOxOWUmXkSz5VcqMzhGUAfoQ/lAphrI1ljwOVvzC9PAmyymioht+/1IumgPpYpVFg3rdHvBZN4ZybiiWVcs547nbZHc+jU4vuevIqumpC1RFYPZNkRlquA/xXDFLIIscJWceWFinHrssQLpJ+pzod6+COTRWQ+ujFUzpB4d+wriNie+3R03e72+3pd8s2+bPnZ90PhRVyXRB1iSeWoQWMIwAKXZiYPAIxy446mFheQocPprQ2Qn3fFo/lG72zu0ht+QAtb4wBEn8u/BC6KTsFhvvzt2vVZb/tjVP9u5/HVD82T15KeVo5+WD/nx88qRJZAgQXPljj6TXaMOgLcj/vykWrKFUk+3Lp7tXD6X614oDNvX3moTJF2h2iRhNHXomDlxvxf6CQ4r1JcUChaHzf8/B3LFo/NZ1xTMpwQNXGxRvy2lgkbq5Z7JFcuTV4Z5F9WW12qL3p8iBVCqt7zJoi9VOnOnPmjIYAolSjBNer2+NVpE4E8hHOcbBGqvVOZXeyYw0BWGP3b1L3b1cFaAsf5qz7Sj89MoFGstNNPBsAZfEGpfSI7w1ndR+yrRBfdlabgPzQIQAgC7/iY55dcsWWO0THHLUr3lT5UE1xnMtXqznSlW6agjT3e6vWwJ7mRLtWyp5k8W3uxbp49ds+eBRV1MDG3ICAD4761vg/+nEC8Nk8DAixrOwawg+IxjIzYCQIXgbxXeWkGA/4PBoFhrvTtyHtmjYjHH5cJtF5FM6cWufmgHIMr45MS+rTW6H82WwQxSmacO7NPHrvv7ze5uttps7xpD78+8Mku8JER3KUcoVW6pXdmFawgVgAsVgT9I/1OP+FBZY7nKUIuT2XTgzlLEZcWYOvLmST4mS42ZU8/UoYO8Z9VGa+3M9mTt9JeVY5CPSwfZEoDfSr25dGT8ZeVY6wyTA0TnTcCLHzo+aHzzl+ElQ4LGjgErkV+bwyiOGSkEBSskuALA9JtZjZ+MMJjVu/pnsqvft7W/bV0Q/ni6oYFj8/y3rYvft7XPZFcvdvWv9kxTB/YZwWaiSIz4Be8m9cinvV7/0hX5fVsLrILDSvEAL2YEgOPCESeBRd9cObVU6kBnayDxZPXk6YaGOrZ16SbRk680CJa+2beCDkADdOE6Cjj0HgYTJ91XeAGjKRImMk8tkG9xNz13xLe7vVqzrTIFDP4k+RWa7a7aHHypNNJx6hidyO5Ekcg+ex5ICgrAm6581nwHsz6U4WqYGhy1VjFa+SfNL4gBDDXn131N+AuWEQXacl9j213ddBT3nPkC+o67YNdnQmnw83S6Pe4FGpkkI3/mKvWXeyZ0BPnmryLLyNmbDghwUQojZMR7apvO8kmgQmlb3V6fdEwkV53CsN7MKTiRFtCJtGYFTwItwIFceE/Nl2+zaA4+u1hrvdm3HVhCrQ44hcZVVK/fz5aq6UIlXahkS1X2rHTxmewK3Sxg3WM2i4+l+vT78UINXATxvEvwEjCfQL8fThXsoSQ7gklHKOWNZ4k4kUzpOfmXVOAK+wsVgEwfeHfkmtX4bfESmT7FekcbLGLAFqT/LEr/92cQJoXknFPP9AmeRde6YLYmRIZDudrCdXThOraoB9fqoTtLCiBRrM+cuHn4pNporZ5af1k5/s/SwX8W93+YU3EFsHho+Gnp4MIRIgVw7Ym/UBrf7tumTzwwr/Rx1P1FiFf7GphiAJY1Q1U4L1gCKJR26UJimA9WlbNELIwkvT/zTh06XqvML3YNz2RXv21rn25onqydgUJaPXmyegLntdMn62eoBlAHMD8k2KAf0Rm1qE8sGRKHnhy94Ai73v1nr9fXOsNg3cquXijAEQTBAAiMs6jDkT2q8yWJAheO0OKhgRSA2RdbOjTuXjkVOveewXtiDdUQLRVrTQychA6s4UNbdP0adPbcVWTZkFyz5LYcJVhgj55otnwSIqsPQ57AGlpcTKqAoQRdDgEASxYyyi7DM2woLS8Uhudy3abWVakzb741lH4u0/0h1xFmf7Nn9CULYmnjihcg2n/iATsAUs4gB0zjSX+uArj2Jl6CKQA2+jt0wX28AHelWEbJ/U3MNIEgvJhXmR12j7F4MBYAx1/cZ0eoPJRvUNZHolCbObLLdb5Ko+WJZasNGLBcuWYLJqyBuNUfI1nQaLUdeMceAml47Ym92NW/2bfOnIIgICQInE3LAhDCk6lhT9VJlkXyNfLNgSvw2k/W8Sx6EpYN5EnASAAuSFb7ayUB/lM/i7XWa5VZbQqQAginCz+vHP20dPDjgjqYzEEMoN3Z1pi//yD/fnZ3+9zCv/bb1sUfch1Hdu/PvDwwawxmXquBWUHubF083dBYg0myPS/swZ+WDtixfPjzytHulZPajGRKhENfoyOI/LwfND4C5jMQoHa+2bdSs2qDt1BhofVur2fyRn78uPs/09v/mNn5/oP83x+V/1nc/2Xl+Onm+XPZNQBbDK4sXYXdqQr4cPTxRV1M7YTVGO1uL1tpUpLM+zOv+MhWmm3MLDqGAKln/sJvDOfTpYbanuSRj0VdTKwAqJMUPqk124cmn/zSIdfad86tO+fWfBk8V5V6c2Ff95/F/Qt7kJdVYkEAACAASURBVMTflSf2QmGAcT9xUwSIjD9uATDXqiithXMgWAAY2oGlGLevDLpbWNOn4IUjI4CiO5hpA9rIED/1ZjWe9KkrkS5hZlG/74qk6b22zy1bZyY6tjXm7XPL9rkF3vfCNq28+nX97NnOJbMXD+zvhCTREWDU7nTbnS7BC5M3Srx3R58xpTgrNpi2HOAxG0kE+grB/sQujVgAO+6qIV7nAQCKu7jjeXcsZwulV87sW1pnrlw3BZIUmaNw2nPZ9XPZNSgDue7Frh7wmcpM1pJ4Ns1q/KvXoWNn4sSZOHbEMCkgfGAJqU2BRB7zPjrdS1d0z+DdM3hVBp/K4Nsz+BZObGSg80AdswC4+fWXWAATqfMV3uTTjxQAuWXMCbbIpdbs7Fkir1XmP+S6+WPLusZGCiCUyv/7o/L72d3vP8iDCYiLlmuNOdXlv2YVPy6of145erqheS67fq22MEGgjw/dOLSkG5MX5e5yoQ75jrB+x5+NF5hD3BSCJMthOJEBSUiSgyUbUAqm4sk2+31Yo0D56YVq86XSqDb6uWQn6f/D3B5XAJunxn/M7PzzvWzrzNRqw3PD6QJ19dWeCXArhpu4AjAE0sztsHP5dPP81/UzKzqFu73euS3wn8X9HxfU/1nc/8/i/k/Lh0MFkC5CIESue7VnorAhebTIJwNxqgP7a5V558oTy5W5Y61ab+5eWP7v1OZ/v93477cb//Nui3TAD3N7Py0fkvR5ieB6JGS9cB09cKa5a1usABArgeIp4pICCuaTU4gSE3kmItoB0QNXhlsA746cr9UWUgC3ya9KvTmvvv5hXnVDAaBLjXv/KAVg21WhRN47FIAYgvxJBQCePdRD0A2ekquLUXh8QRuI5JgJmC3VphWXP8yr/jWr+P6D/J/vZXQAUPgg/9es4t8flT8uqH9aPnyydkpYgYZ16tBBAfzbiDMYDEyeyH0UgDGYeX/mHcFJ34wCuG0oKSnjzB5yRjL8gIjXzcMdyxn8SZYKgT7VmVMwAmY1fu7qpNgvBH5VZkpOocyUVqe7Z/D+tnVBBzniQKmgh5bmO8Qp0VQd5qr8LyqAGNhxE46/7/64AtBG6xQJ7PX77mTp2BE7tIZXNI6nm+fcuRlNFwgubZ4aI2nIjKzWm8pL27bGvHNulWvtskvna6X+tdr87sgpDgOQBJd5IXV9y1m2JNnyqHy1taAN6AIZsgay5frMkX3oHtWhe9QK1jHlrW85yypvKVttW2Is979Qbb5QGFQGHymAoY0SiJON0un2XKGExRe1+KKuMPM8kgIgLxAX1iMK4A+57hkqgCdrp2IF8OOCmg5QAEsH8ksHswDSxd+3tc8xZkjRhekTSGOAA1YbOVWWcKpYoxgXiY9Ot5cpVlL50uhRKMeyxbVT85O1U/BBKw1v923g2haEmiC4RxUAE/3nYCnPngcoE5QUAFgGGrAPaBbxzApQJO6hAiCvyz0VwLktwCwAdxTMKRp3jR/82pgDxhRAEDJbRjIrgAOj6DfAJDSCIPpoNZRvBHM1SBpJlXiujiOcDqcLpDXjuZItmOCHPZT0xDLcC8esOspG00JS2TykF0d2TDFxTlSn22MZAe1O67ZDyB3IV+pr504SRm/3baQAur1+IFWMZCBI1uv3g8mcPRhvtCDYa/SE51SXNCN2r5yHJh+5gArVhsrgU5sCBxbwAq1dwSoTrgA2HeAxA33JQyZRKAc04fj75MaEzkQH6thg3ALgMQBxAKDV6daabYXeE0nDUru7/+UrDSayDwAUDhUA5rmduVONdrfW7Dhj+dcqMyT+7ep54t+ewQuxIh4iQmT2QslCdDSVKLMOTFUHpGDdQCqUBfT5dH6oLiAoa4VVTUaGxBHJiBXAyKfjf1JWKLksZjX+YTIorXdHCA/wH904vX7fHi+9P/OuXvpyFRbf1/tTFEQlLxA5kfjapS1Had0G5Q2412JEAYx3aeIdsQIgm4P7dnv9fjxfJXPVFc1CgmAoxWMAoVSeix5bMHFD+ggKALhWbZlCd8HMiXtDF3TGCpTxNrEzE2+22h251v5k9QQUgGKoAMh1wxTATQuAA39aZfPxIsgVgMaT5iYCKABai4T5r2JLIlGsixVAtdFaOTFzi+pfs4pMEUxsZgHM7Y0qABUq/nEFgMkVExQARg7FNui6Lb9iTC1cR2c1frJFIPy7c/l0Q0PxhsFgYPbFfphX/TC3B8e86scFtVxr5144UsBcX5Ke0/pzFSH+MZHad9/MVeoYBgDx8Wbf6sJFIe1uT20KXLmjvV6/2+udmb2zivNyDdjY6An/872M2xArpxbmQa3UITWIcqYxqvwJBSDymE2WvBPVw99xc1wBbDqKq+bMoj7+8SKIgSXrS6Xxueya0gj9yTx39He5MkaNy++DAsDAPoNomLBHvA1LxqJsyZg/VaLkb5753e50tc6IUu9R6j3cC0R6V2EMDvHldRSjL5BuPpoGiuvavoDm36IC2NBwC+DueULLAtbPHS+VxqlDxywJAnKxiSC8Nwc+HHAfNTpbxiilnRgCaZ7+taqFHHxyj7J8UFxXjOX9iiAjTOm/QAEI7vURBfDJd7ztC5GbCmDt0meN5Er1m3XvBoMhu98CPAnnTlYAolULi7rYuS9HoTBYYoqmMZxxjSWsNb0MDxWAN0PqgcN/WoxKCyDELiBQAIILaEQB/Puj8n9VAWw5y6MKACLA+t+3tb+un1FqJnnhfpjb+/dH5b8/KkkHDBUAeuFIAZMjUWGNJ0osrIVZy+1cpZEt1TLFKgVsoSxPq50qlFP5UqZYIenT7nQzRUgZoD9BASCEJK80KYBOt+dPFiLpIrMAEllbIEYWgMEd+ud7GflFf1o+vFUBoJlylwXwkBXAcYCWFhY03syJM3Fkj5KbXqn3Til1Tzc0ByZfGxM3CtXGh30DS+va0DjCaQrveWI5sQKA/EDM1pvThua0oUieLRI0hbLcC3S35UqZuEMPM6aZ3JZ/9YUrgb9AafwtPxl3AR0GqleRyiUsccwFMhWo89PrX3viT0UKIJjMcZ8pjwHMKi943JIQKyiAAztIcMxwoLIQ4MZxlC7CbFF+V0j1mzmB1bYzR/YMRuf6g4E3WeTrbsCGwJoKULgNCltixYKbCuCl0vhMdvV08/zJ6snCgeHF5ukPc3tiuPpReUExgO9nd8G3vnTwZPVEHASmGEAMQxG3yfdP3h9RAEnM9Oe/6nR7JNkjmdIvK8c/Lqj/Nav4x8zO/53a/K836//1eu3/vF79r9dr//VmPV3A9WvjFsDNwOaiPn4ZyFPCbrLUYApAJP1HFIBYQ5B6AOmvjy/q41ybJop1cQwAgsBGr/zSIbuw7Zxbt88tPAgMMYC/1AKwZtpFLO/FKrXVWvlqE4R1uU4ZxgSi+/1+oVJPFyogsgvlkeSuerOdLdWuPHGK7Z+5ky1hLQiUsUoU3x87IAi/c2nyxUm4N9udXa31HzM7/5jZsfiiNEa2QPzfH5UL+zpSErly7fdtLTmRX2ECOx/WiRd3KQDRUsR3uGKGsmbX0c/5bQSBqdDLHTEApd7zdEPz6/pZLAv5VL1+3+xP/Lp+9uv62e6Vq4FROvIl0LJNvhCPW67b5ngJkxVbnd6hPQYLNjEMcB8FQPEhIrs4T51KzvzJOhxgAeyjCbaP/qMb56/svpql7kINFrmvvuUsb9jzywbID6G08XqrI9d5nm6erwoJzsFk7oe50SDwR1QAP8xB4sqTNXBZvFQaQAGceedhOVgCqQwFGg/8ZZ7Dk6m2lq8js1hw5t2R4+2+TeOKkyHf7vYuPElcUQyrn5axFuOGDZatbtihNOmq+YYF8GrP9If8evnESm7iUCr/ZPngveKiWIV8j3y59mL98J/vZYKWomA1pHa8VELiyjRzL3rTZbDf662OwhQCryJmAT3bgexDG88CcoR+xoz4n5YPflo+/EWcBUTwcxdWGr9RW86c8Va31+v1s+XGpTd14ogRWs9X6o5wCpKp/DGLL2r2RkyesNkTprPZGyE3ArMAkJ6v9kChvj/1YIINSO1lA2Q3ulJQj28wGMSL9Y8X4PT/eAElVuavwPG9cBXhFsC5L4NRAbAP5thy62E7R55hGuj08X2DwD/Oq0ZdQKIYwKoZ1oHvuMG1qsQYgBr9qnxGIMLC5HGMAXgLn1U0b6LgZTcdkcyrPchJnTlxRXJAolK9feiIvztyvt23fjiyhhC20yrxU4sXAr/vZWcWL6mEYqX+XnHxw/zepsZCiD6SgejOH+i6ebVndEYhu+yOf0ZP+PsP8h9YKtfR6pmVtFe+UgcPFa4QnjqA1IPZc1g3t2KEbLdtXPOoCMC6OVUYMhHVGAN4EPIERhPXAShDkNEr87CM3nEqQYRW7/l1/ezp+pnK4Glyca+xzah0mSIsNOn1+wZfHJUurMJ7S0uLWL0p4G1diLFLudHeuIZ1xa/VEAcmBUAuoD10AakwEUht8h9YQofW8J45TMtEFq4h+3bdCv4fmQdCL0rmqGSUV0X6jFc/R24/GBcQLFa4xQPLS79lysCvv21dcA6uN9scfNUwMZSMZY7FMsWqNZRiPmvMBOWVuXYcBV7LqdGGItK84hhVcXi7b/MKpcdqzY7aFucrtmFRsTkDpQusuTVLVuwCgjRQteXFrn7jwlnBLkEQO5I+MbP5HExkKQf0X7OKH+ZVAP+FvA5xDuiGPlwWLUynNFCKA/+2dWELpVgaqCP0y8rxzytHP68c/bJy/GT1RKlzcwc0X45EuWtKc2RZ66caYceCAhifEhPvtDpdiAGsnaKiQgWAAUNxeQkq0dofDNzJMtXS+ngRJHRPkU+uADReUgCgHsj5I27nSEiTH7EAJnaMp4H+MK4APjcGQCIDFYAr2xaXDxuJHPJF3Sx4O+I9E6K1FNe1BIEDCTZu6kOwwhwXx707cl55k7zcXqPdUetd//6o/NesYldrJVnfbHeUl/ZxzxKF9yk3kWqNEG9cuiI8BvA/09v/826L5XHN7gKzLR8+WT1ZO2NJdOTUZpkt4oVgQsBc5q0/4FIQwkIwsQXQ6fU13sw0rr4m6dzqdJWoAGANx9qpO5ohNssUq75EjiywVKHyxw4s+qOIDq0tpbwdQDbX0UiepVD3BwNPojhiAVAWEA8CD+MuWKtmBoEUW3+HvuXRAMCX1oFQRwdjFoBYe3xl12QBqMJQCnQXluFUNuwQggsjcXv9vimYfiHX/b6t5Wmgt0kE8f1IpvQSs1YIsS7p0YdjzoQKTYKr3V7fkajMX9HiVSjlMXMKSTLTR861Kz+vPFGotXZMUJJzEaswrppxswHY3iG7ak5zmVWstd7u215hfGnP4CWoReUfKFP7yOj+90fM6iPpv3qMCaCwCoxQ2Af0LZ560lTxNFdpvjtygFcRl5X/Ib9+Jruyh9OkAC5dkV+RcX9dB/Z9un6m1Hu4AkB+xUwDTGadOcWSkJgFdOJkRUO7vf7d+ScsBtDpyi8dT9fPnsmuXqtgHcAsJq4t6aGC6aoxpQ0WqcOtTk/jy85pgyDcmXzHMorXUVo53On1z7HaIn1HqLYEtVdXsSz7sbASGBeCud7sW2muQgzg1PILrqv4aWn/h/nhQjBYB7CgHqaBjmUBMQsAkysmWACIP9QRWAW2hwqA2aAYBF7UQRB4BqXGC4V++9JFqr3T7R2bvT/M7c2rr98rLiAGgGGAHxdUuGziCFU7rNt6iXH4d0dQceEDro04dSU4a8GKlkp97dSC8W2VWuckHNrp9s5tfpL+Py3tH5t9ZBN4YlluAWxo3Y5ozoMp7a5olscAQskcZZpZfFGrP3ZocP+EKzl+29SsnzuYBVCFlcBvsDTNzMkwyrVmyQAOxRQgMa0mWABfmQzh1smIBbAjLOkABeCBOlFvhMAStwBoHn1Q6wn1cxlSqTc3NLanG2fgpMWcOmYtsRS4yJk31xQVJ251e2eu+GsVFIHgOgbSQDEF6NkOrhDEFZpvsabTB8q8Qrm0wTxvQwtAHYFCQGqMvkywAD5F/4dnAdBCfFyHCeUZtKESiZVev++K59+qTM92LhePLeF0kSpAkNeVzuSHFcP/GxYArsinslxBYX0ZbHKSq1P1AnBKUL1lypXEs9oa4wtWE8X68jXk8PFqxrC9CRTXTPPqBcVaS1gvCukiaqOPalQQP2VL1bc7GprS/1nc/3nl6Nf1M7a4X4ADFFlyxEukn4KZCsvZx7pyWPtT74gATun1+lfuKCELft4zeEkBQCkITFqgFCCKK1DodebUw6tGRzKlX9fPflo+/GFe9f3s7j/fy/4xswPgEVeB/fO9jAKtrU5398r5dEODCgCya3hUfNmQ3LCkU7hDw2AwSJebc9rQxwtUABj7JZS0IFYAPrC3KHo2Tk9eKidRrE8fgwLgpSBWz2Al8E/Lh7T6YbgS+EA/shCM8i8h/ff+WUAiC0AG+0PABilYPDI6ex6gnigM/mKN1bFI5su/rh6tn5jI+izXGhZ//MPeFeXjgkGGth3L2MHxXdb6bdECbfBCLAHBgFjupfzqydrpzytHBk+UpHyv37cG4rTCAxb6LR/yvCN7OE1B4BcKw6GVFX/lAmviRSiVJ2b7betiU+viRQiojDYlNVKNP1rtOHEV2JfFIf+2mKLIAuBr+rgC4JkF3AIgp/+v62eyS2dDqILe6fZOrYEna6e/roMCGMnpohQ4vtlOpcl2Lml1ulp3fDwNlJcJ4atzKLuErwCgctA89PInK8GBBbAfHezHIAzw9Z8BX0Ddu64SKuw3ZO6qzFXMViGRmf8r11sn1tCzHe1vELQ5fbJyTB7w/yyqf5xX/TC/BxBsfu9HANf7v8BCsLPn6Ft/C4uB3R/PAyv6aKLEsH8fdk1prhnjC1eR+cvQR/RZY+IKLO6YPWfnSx8Ue6M+JEuNLVN8CQp7JVZhq4D0GuiANIBWrFQMpZ2gbKf1ldL4h/x6S+vMliA9gP9rtjveWEamtf+ycvQrpNUDrABMjT7iWXAsBua1IV5mBAq7n7qnYYcQ+1soLmh+vWdyCtVAdZ74c9nV851Ldsiu+Bo0WIYKdUbNU7CyzPkestZw3Qq8l+/UlaAYQDRb/m3r/MnKMWBqyGZR/AsX1glLkHZJyLY6XcWV87etc+it2jwN6yr8GLmKrxiSfMF2q9u7CubnQe6H2BmqkEaXdLElfYxbABf+HH26AItjo0BMU2oNvGrZNXPmxFegYplYC8g9JVTSxlpA1idrJ2AELB/8tLjPFcDSoeGn5QPtsBQErgBXW6ifi9fRVXN6E2MAuxgD2At21BEAVnxeAMiK9FSwA2JHiVGobdhlvrBqSi/pYx/PAwpzJJQp86p/lUZr/czy8/LhyBqrXr+fK9dOLf4/ts9/29A829G+gLV45Dh22qKs4hh5lpPF2q4h8EKhf75zuXRiSeQh3k6WosET/RmDOr+sHD0BXXLCAz/XnhhCUcPrPdOBNVwXyg62u8MSKSMFB33x7K/rp7/DavPr7SsPVwCY4oy8IYzmqim96SjsgKlUV/ibylBbFeoSrdTR/oORJMJoKkPgTthxs0XdvX6/VG9TPJ+kPFkAv0EpJwgDnNmCYsRGgRmTLz6lvH4GVZh0r2EZPNR3gnl6GTZEihQsqre7h84krSGlwY1my7QSGNeaeX/fvvh96wLmKVTy0EM7B7YZirtAuar4Knje8tuOktxbI8ozLsXoy5dR/gFbADvuarjIchbLzQ4tIqXp0ex047myLZTaN3oV167dKyeVB5Bd2GQXNrnWDselQ3HtwsRb3+wRbJkyc+Les8bJDU3Fy+Kl5qoB9huZvwxz0MqRKeFTOvOiN2CtV1tya5IZAbQdh6h+GVQDPXHjxizRdLFG/hNyAVGSGb0CTfJ8pe5L5DXO6DAdGO3KQ1ea1hU32t19ewJcxri5B5Wofbtvo8w/KntJNsHquRNq4puD1hBLYI1ky3zlOi9fRa85ex44EzYO4/25+wKAks7NjRVaYUtLV/zZOqXMkjnF6TnM7dFhkR89Kx7X6fVBAVyGefkH2hyGVYQWVUu+u0u3fQqGkVAKgvrJ138IC8HakxeC3bQAqBjJRbAUytWrArijh+bK9dUz26/rZ5BmtnmmNnjC6cLI+LY6XXc0O38MxTYoujN97Jo79yWKUHQkUayrrDGMA9s+HtutoTTZbVQ/at/oJZc0Yc+nG5oppY6kSafbO7GHuW1HEJ7KDr9UGq89cVoKd+EI8RohP6+QMwoA7AuFQabz80LE3C6kmtUT89AhEeVL89D/NvgvKgZH7oRPZgEdmv1ZrCxCQ1ysNvJCcRRSA75EfvPSzQJ1mAJ36GIrH3v9vjNRBttd441kK3zWU1OACXCms6q60awjmj11RLWepDdZ8qcrtjjsm7RiSpMF8FfGAL5Mb/wtvxJbAIpA05tv0y5urW7vOphfuAy4E0U+SW6b/OP3662O0ghx+ZVLWH7DhqTXD2Rra8b4ItQgAwUAmSp4JkwKjn59jHDrIlTnj9rjQ/RXrLf3nJkV8FmnVk3pVVOKWwClelsfzNK+Jbwz6WJ188LxdvfK5IuXsUAj/4hfNDvdM3cKUmKuwhT2gA0PCvU52JkIMPv7M1jBO3Pimjl2eYQ9Ag2B9Bu1ZfPKO7Kwqz8Y2KO5KXD9O2ZgEYP3I+TshxYgZgXve+7LfFb5KgJKz2VXrzBWMXPintMGV/Uxbk7BLjqV1poxsaiLgkV1FSZKAg0NkCa0YkxyC0AbyBNVuS21ZslswO5g+Q1b/jTwZ/cD0Hnj4n4uQQmQzBbmV4AFIEK1NywAtEHJAjCmWvWOuMofG6hmp2sNpd+qjM93Ln/fvgDH7qbm6frZ042zFztajT2ULY0urrZCQRFI7np/BkbYuiGydBWCLCmoHe82BjNibonnyiunNkKLO1euETSKEe/Whtb9Gn33NL7vYB80x9QBGIh6oRicEBw6+XXt9LdNzTNIG71+hflg4kr0EHA698/BjgWRJah0kt6w5bddZbmnpgg0lZj/o6b8H5G19LfIBz5Sn3w6SJLPsQDs4TQFXWiMYa1+NPNSdvlSfmnyJ0ZkTjRXmT52fjjzKkVoMlluLl+FZ88hw+LdkUMc2+cT/I6LaKEutgBkniq3U1Xh7p+h/9ACYOERChrgmZTz13OfsoBUtCGMHzZj6vVhI/JArj5/FYEo3Il78dxjDKQzpVpLKHR1B1npo2Sh+kZwrx84ktVmp9XpmaMlSDvBqiwQAMAkRQgPIFZdFjaDhI3fjCncQSWxqI/b4lCYutXp6cPFJdzUcBUtgFVTmrutS/X2riXGxXGp3jp3RqGq1M4lVALB5eBLxxZzIJnGt+D9T5UaH3FB7LIu6klXwZzv9XWhAlgnuDsdhSio8IgrUWp3e812Vx/IQM7SoSOev7ErSK7SWLv00f6IkMBKG8LgPjNUuO3CzxZtpUr1Q2tYbQqoDD5YrKhzK3VuxbWLH1QkjkqmUCHid8KKoUVdzJmqklckVW7JbBnaZwYy+kGzRpdgP7XECu6suWJMcQVwGSwA/fFTllJFO9fj0oozYWeeTLl55k5BjS3YdSu8bwqojX6speWlpDo4Y4fhrPdYAqwWJpWD5v1cMiTWcT8fmbu6CxUWh9sccv4HB7coD+043OQ7G5O9WKi1dIHMhxPna5X5FS70/0MGAXk6nuMFuONk15talz/Jtj2otzoqS/gdFtxH/56QFqUN4YD6eJCp3upo3fGXsL+b/gUVIJPrMjf9h+1uT+dLvsEtMPnSbtjrEQP700dOWsAIe4fRTkHbWswXYrWpIRPp0KG0sL2oSrglJGVhoSZOruN+kDtYjJ7yf1RYjJ4FIb9KuTFRjpEwwd2lMA3UzdJAKQsIFnse2ENpmES1ZvvEFmIJe71+JFOCHaVwvybU8dpptdEVzZIaaHW6Z844Iirfmj5CG8LUWt0DZ5p2bKUai2/3bW/UlmN7JJotN1odCurwmT5yAdsJxEpCcnkeoi/C1rNgpwr0hzTQz6e/EAOIiWIAX+s15hj0VWFKw2jKfXVHphkttjatmSV9bP4y9AE8Ia6pQ/sbteU1bLNleKHQ/yG/Jic4hNd3tM+28byjBUcbhNoN4ARHnx1mrQR3LAmZJQnong70TQt/AlAFZ7QlAzPBloNkf2t2HfN8Vk2pFWNSGyic+fOoIUCurZrTdCidOU+mFsrV7YnyvDZkCudD2cqBLUpe+1d7xhcKmtXQ2z/k16xvKtP7Y/uBLXrpSx85k3Pa4MJVBDpjgMVQzmRlSR8DQH0NSfSYTS9YKpchTKGBqPUslKX1ajwpP+5w5E2VLrypj2eQy0SQE6T/FTjigcnQalkxJtWujC9d9Wcq+mB26hCqwr1UGoCYO5fPQGpc0PFsW6vzxFzRrD2SWb9wMWJiNAUwIzguU5Z41ZOpb1ozQCLYayzODtgHEY0kjJSsWTKuTD2Ub/iz9QNPjmwCouG6Nbthz2/CVrTFLWdR7S35so1QvmGKFue0wfdQuNQBlFRBIf4Xuzo+6MPgB0ZB5DqPEzeuQZsP8u4xAgyJ7Ru2HPOuBkR+7agoBgBJ7pQ83gHHsb/hzLQKjW6k2LoOl9YM8Tlt8IMGORCxNgRjVKZXUNHX+FplggO2fMIDPjLPnznt0ZwxmGHY/9w/h7WAFnVgUDI76TI0e+7fs8Z0gczsqWvqwPZ23wrsrTbTcelJeBIFOq68ybVL7xQUonHgYhE2vixede7/oPEe2GKeZNGdKCiNgVdQ1N4AU0AFqT44C8AW3DJEXMlyIFu1x0vMSjPASK3BViT5bWdpiEBDHY5AAYDzaOJXf80sgHCXYgAyT9WYgGqg/kxtz56c1fimj2ERxms1sP0LhV7rinkT+a1LN8xT2LYFj13dCyjZBtfv9s2XnoQzlgf4T/b0VXjVEHMmK1eAZqLzV+E5bZCsuulj59QB6IDXavOrPRgFhWA6QAAAE6tJREFUavOl0oDcYh4OB6QAgfm1bEjcTX8IwHw+/UVpoCLsz1HPcJnYV/Ap4K9InywAJe0Ij/u0rFuyS4bEwlUESm/jzojvDmGhFkoEiIjC1g247Q5KBxy/XT0tbwFCH9hnqNw2R8H6uIA9YfkSLWIilIpxyNwGrvLdgt1ui1uOIqz4xXz/NXOGbAJ2NkEEGDzXoCEyq6Y0bLWIm5jPCZuY05KCNzirYfMN2hkON4ej9Dta9kXYkO3ayHAxpEVS35ZwfezoWRdbRNtlnlJuMIWJ7ANUCT4K+bJlVpS6iltusd7iHuJE1fe46QrRE7AtgVDcwwgyzRUGSBXH3QTZ9iYaDP/iFlecAmsWiN/CHuW45STRc5U2Q8cFExt45rSC/b+E/qDrE3ZL38Yd4bccRVheZ0rDBgO4aSX1cAo3WqIRp37SuPPzsJ9YUZUlqtJuoLjDiRwT2/dwU3i2EEzgfG4BqEKQiKzwQxH5bawGsYY1ZDgHQjwGra53h+B4gfOhA/0wkDpMCcR0hqLBWDOSbDv0ekH6AHEdbP6MW6fNa0MwcBjpmcH95UfaAUsOt56fwe3d3+P27ij3IV+AoilwRquC2qG+Te3bqIeQbYLpxfD9qwj1RGzvrprSuPoXSp3LWR1KsJOISmIL4OuUHiO9GqaBQkZJU+6pQU4XJfVeR2HFD23aSrs2qkBh33VApqyVJAntCknp4FC+H0dzSR8X7YOEqeS4K+QUbAaOGl1on2Y9lRfDvAz/vDYEiwBwadEGbgrPEnBpIdiYBTDypnfLcMECeChZQOi524M9u1u7uH5v21HasOchE8MAuTqoY/3kDZ8+duLcsyOXM+gE1jEbLWB9nv1CvnXyOKNsgtR18ODTGeQUon57fstR3HaCJNpxV3ZclR13ZdtZ3naWNu0FMAgg8T+DUk+wEqxgKKB0Awm4akohN0RQLoPGgt7C7BV6C0XZEMGduDA2CxVFyDuPhgiiZqFXYF7c7CfcAbkJ91eMpCFAjnDPO8u9oTwcIQMHkXgabZr8pqMAGs4GEnbZkFiEfdsF5IK5Rpyeb/etyPcoRDCWgCYF9HYJSmIgZgQ7CVZEDymAPRRZUfDELQdAe9SpoE3JrgLgj35/ojlRe8dV2XaVidqrxhQaf+GPF0DJmRMXSkYQu1MHtikEAdRJ1s9929ShndAxGXyLsL8VeDa2nJDYvuuHBZZ7oc64XxVl3DAPTRFoyr31HXcFtVEWeiLiQFCxUMfUi1qW51YNM8cIlaPcD+IMj/BoB2WOrVkAMayaUiBB9DGy8OYgd5ZZdULLPp6NxpA+1J/B5dMYZSGewUbiYC8CJiCfIWgU1sNzP48A4boNiMcM+Qrtsw1bbhP2AS6LqfTg8n84RqbRFOd07bgqm47CuiW7jGiScRTm1707Iv09+Tx9DHp95gR0OQA1sqcBUUH+G8kQNhNpHDGfcPYcNfqpm899/hTiz9HoiymFXsrCtrMs99b+shgABEwezgHDFoZUPCVCMJiBLpiBG4gHSVqRT/wjA7wwD8kBCgHSYwiQcpREkAcGjFZv6XHAQJ4icjeDBKcDxBDo3uK2owQOUHdV7q0PD09N5q6CGnCQGoBAJR2b9oL4AEOBmQIJCDBcoRoQusqkBgAxBs+pb2CGo7ucpZZi93jfhj20gprhjwYxiqAb5AjD3QmwbDC2wc5YpGHVCBmWGzbwsWwjyt6GOkjFDVseMDtZLRRpIIcSkhRgpnAgJUHMQbQQnFRx1qYVpAYId0eR6ADdE/WTSIoatMzO+GhONP4FyPp1V+VIatABTtABYC6ADsA8XS3k6XIa8r6NXFBXUd6FQfobQEvBizsxsIkBAJBruLhmZGpw9gMIEgAIIvfUaNB5TyC2gWljHHfT8AGmnnRgHgG6FnEUwLV4cxCJYdBsAp6hRiBWf/sB3IIRFBBAIn4mTgBlgO3wFuj7I9zFhgk7Q4MItR+Q8yEHMYjZn+EeEQryZR+OGAGMjBEdqAYBaBLtOXcV0CTyPJMkAkdxpgKVOZyeNElZxX/Q5VSzZGyqAhzEWS8eRDLIQKML058aF9qHqQTIAGcTcSmuAitCAq4H00CD7T2MAfyZIfiOee7IZ/fVnzF8D0sBIBMj2Nr1N+Te2rarvOUsbthyCJoQMRkA7IBnHJZlhefRIT6nDZJbHPAROFshFX3hGtLMQVejMxpSTdCzD4jVDsiUji1ncdsFkB+rcNR3/Q0ogSIc0A1fXe6tyTzVbRdYAzcOVxlu4n3oJ+SxjHaV+fGxt9Rt1jF095M3nMUerBh7EPWN9xA6efPRW84iwHl8ImTQWzJAIgDgaNxgfIJeedNRgN+6yjJPlQ60bEpoDUAtoxUj+O6pnyzYgAQkMkJKj5iS5jQWLQGXPTUrpgD58ek+WFFEVW+NCCjzVOHRREak2/ALvjrQWUTqu7qH4866x7sKRYegq4RzV00p6iektXhrAP+DAP/Brx2ByjYjs4PYD9cDQxgAjAAfGAHbTjBD162w5HvFmCS4x2IYQpADyD5yCKMAxpAwrCODODKCfOzoKSNnFnnCDsAQ4ygAPwvcQlxNnMCbom/yPojZaThSzpKY+UeoNE6oEbp9hX9SQBGX0TJhIvfVYf7iUK5ZMhMYHpmHR9rE8xRkiHiqQhUAlCQoRojsFC/kE5Bb5xPmFD6I2uRBR7DAYBsAmKFyXx0WYIfaYKrCapUJvHpPmrMYAGlv8hZ9zdekt6FQOxoBuB4HUBhAQvAFofeAfM1i2AtGNLr1cWNCAkfk5SeIRH7qjSFcLTEg7CzDzjAE+XGDsF1fA+BPoKUItpXCAWX5/E3Ag17YBJiwqgx3BBNfgweDoCvCYULoFBsAmIbZROB9QtRGUQR0AqShrBAHhgiooXtUsBq8T9DDbewke5zQB7pPpgmLVZBpIvjcCfVvglMLwZ3wjmTcwKZmaGAB1hZsF3E/h9586rNgmkCz2CaRDtKWhS5tIxHE98Gh7GvIfY1dPIiG/PsyT406A5/6mwo8wPvnrZPVBR4YW57ZOuD1ghgDHbB6AMMk5IelEDf698DIYyRF7A9uDV8D01oYsCWP/8hcoCgU2aBUEELhR0cQUEkw/jAaxM0yKAiIphX4rETmIPCqYCbi7hFgXEKEQ+A3zj/EM1ibFqyoDVse2iQrShhHehxFm5hpKCB3NObQY4m8twVBFGaQUd+oe6wPY7wEe6Ny28uLK78CLR4jIexJ+ScjtOKe6K/2/tAIEHkUtlGSAJ2hhiN44Tgv8cwO4qv7zFOyXyF2hXbtyBykqJhgloG3lg6KADHrjeY+uh+2RBYYbMIjwP+JvHpP+gsxgK8+ag9sBPVKWSYGMwJCbbDEEYADcgQWLxFowvkGWJv88hz/knee8A7L5EF8BEOFEBiQjpuhYLm3JvfUCHUC6gfLlyleoD5UQAT4AFZkqA1HEDUBGQQAVAGu7vobaKkw6Cr3oroSDALwdRBIRy85AwuY7T60P9A/zqA0xh4IpEPfEDjjefgslJX4UOoDmiYUsWDI2kkaDiA/eXWhBewqe8dgSxFAlUawyAXeLREaZYQF8oKgwUPI0mFkhFChQDqQ3WgkCTRhJAWZC4YUUBUiWnDAHX+TiAbnke+M0JmsLorBoLmGUlXoEu/bzX6ifmLWCRjUAvbH7E8B/kNxFcECoAgZsR9GoQg5IgIQ2A/0PTNcKJ4BdOCxIrRyOF8Nx4JMHIwkAbKD0RwdR7J4QCOibYQGx9CmRLXBLE4WRyGrC3Y0EmxWgYehKeQZ1hRGU9jXkOfZkGEfaIx4f2hcOP8z7z/OR5qbDHIKtII/v+7roRFAq7vJpAMMh0PpBC8oN6CHfD7GS9zAGo47zG5GfJiqgjy5Me7Y/nBOIa9C6AuzCrlFCJ5nHFCSS7D6muYLZCoL8H8Sr96T/qgAHqbzDgI46L8DPC4AcO4jJtxE4JfhZQQ+BH/oTPcJQZN/GacHCG5Co4T3CfKjhGJal/mIyQGK5siwM0HQSdQlgqv0J79DhgJHuNwsuOEHRyBGH9GZozDew1s7iU8ffyh/LrQwcuD7stcUzBqQbncTFo0Pcbd5V6mT3FoaIcgNsuDjAFHiwYyqm69AN/l3ht/E7oGEEsyL4aCP9U3czxsjLqBakP4CpCJsSNB15Mxh43DERd3gPbmNnThfQbdvHvTRkNlEROB2DxtEfGXxIBJ7iM/sU2FkqQV+pmeJO8CfPtKBG38KJOIxkgfn+hePJhtKIazIhQmfKWCEodnEmAeB/AgjES/xqToyT/lwjxIcJyB9efgIal98Fux7xk6fyavil73tGmIABwj/H8p5n4EOKMyiRgyuCgEA30PwqAwAeFQg3txFf/EuYmQ6y9HBTefhfV99F8GvEtHoHuJQdka8uYe+NhVLeQbv8D763VhP6Bpq8nXVaBCoQh0wC4TfoqsO7AN257Z+Um/Hzgo0IOhMPVQiBBj2k7cs9BO82NgHRhnqCb4XtcDbBDTBW4Plr9BzTlX2FgDPMeCBPWFUHesn3ef9RDex6K0nUYP6SXTjZ95z8VvwT6lvnM583PkbgR1zS99G7mPCDxgf4vGFkYWCNgD/J84I/uk+jviQwjeppMAo0ZC2+BQxD8BzhRHh15xnxO9+g5fwVzRq4jPxvPg8MrK85Yl9gJ5M4iL+K/FIMf6/k0oPRaqMjKYalwWIJcmQZ7w1JjFu4S7OgcRXN+gvjDUfcT529Cv2FJGkmiidOK/SLPgkr95nFB6eBTCM4KPqJocswTGmwwUMPhF4ipEOB0QML99Eo4Q0YaGdcIDHkyqvUgrByPmmQcB/Jb7gMHYy1BWBPg7hhxdibI5YjLdG0FX8IE4Wusm/yZ47qSn6JntHfBfxbz+jw6K+ibs08Vr8OH49/k3+kfjijkEfEu0OkoqGm54IjQtjehtiGmE/+iGR9w7ajgwQH47xi/F353fEX574LLhJ7yuML/2Et8AvxE3xa/7pbRdD4t+DSncQ8Kv6iI84vd0dTDUqLiaylkB5Mig5bccvboyg0BR/hPhCPKZDI1XEq3/GDnt4FgDhsqEdEO0THufYEFzzAv4l5CJGN+PXHG2JWxjq2BG8L9gfYu06xBH0qWATDG0F0R3+FP7ckd7ecZ//liNiZouI2h/iAt5z/HTktxzp3/WmQgv8t3f0jb8F75sac2km91BoedhbAVHe+n2B8kNq33yv+/RN/J0J/RT6MBH7Tx5xgfLi1u6irfB9br9y2k7gFoG3xTTh3xc/ka4/8XZimn/ZtUCfOywkMZUe0PVQniBlxukppu3d1+Pj8sk7fO6MSycsSwV2OXkghpwgjMUnefXuURBZADxoQ6EbHhj4Wu+D6mZFnVhpJ0RwBNLxTDAW9AFEa4dnQvSiOzgbhZ+AZwkzq4QSVwwj0LOA7sKSdyKRQJ/R/gjfH70vbp+umWEheu7n3hfTYeJz+RuJnz7y3BF6itv53P7w7/M2b7SG4yW+Q9eEKz/r/n3ei39n5H3F90X9vG18R+4z3mM9F5iHt8npLIDlG9+nX03szx3fJ5OXt8yfNbEduknfEb0dY2Z+h1r7TPqzAONN/h+hzzAIect8+dq+f2OectoifZj0EMkNJjGIep+k/83WmCE1No7M8BLJJf7coUQCAMHkHhCQ01aQQuzmve9/d4AxgId73kdNeNcZVfr+3edPNoIe4XtS6a7O3ONBf/Ln4k5+WVO8hS/7+Wf9ij9r5GKkkZFP6c+R7/z5Pyc+5ZM37/9cAGv3ZgDxc+//q7u/eR+68eeON8U/+oYvxt8a7oxLj3uP4+QGJ/58/Cn8ztj3/6ohEFkAHPI/8IshxuFg6t4XQ/35v0yEP9PJP+Pym/jc+7/1xJ+P3Lx/a3/hN0f6cM8//8IO3IgNIL/9tY3f3dpt73v3r6RP76DAbSS9+/4dDd720d0Njnx6WyNffP/BWwB/lSaU2pEoIFFAosBjowBaAOg/QvuUebela/JgSnSQ6CDxgMQD3zAPSBYALIOQDokCEgUkCjxCCkgWAETSv2END85BycIT5UhIYy3xg8QDnAckC0CC/xIFJApIFHikFAALAAwfAQVzI0i6T6SQ6CDRgfEAFU2R5otEB+KBb4IOkgXwSDU/1/TShUQBiQKPlgLMAiCMI50lCkgUkCggUeDxUECyACQLQKKARAGJAo+UApICeKQD/2htXunFJQpIFOAUkBSApAAkCkgUkCjwSCnwHeX/MIUgim5L9yWaSDwg8YDEA982DwwtgEPRgljpmkZdooNEB4kHJB74hnlgqACYohOpAemORAGJAhIFJAp8wxQABUD6jZ8Px+7Qd6T7Eh3E3CLxg8QPEj+IKfAQ+UGyAB5p8OcbBjXSq0kUkChwTwpMsADGdZp0R6KARAGJAhIFvj0KSBaAZAFIFJAoIFHgkVLgO/LkwjkOwQB2SNdECokOEh0kHpB44NvlAckCeKSa/54uQulrEgUkCnzDFBBZABz+j1gD0n0xBcbRkPhTMVKQ7ospINFNTA2JTyR++Dr4QQoCgwXAU2Cla4kCEgUkCjweCqAFQHhEOksUkCggUUCiwGOigGQBSBaARAGJAhIFHikFRDGAcb0n9tOJP5XuEzUkOkh0kOaFmAISP4ip8RDkg0gBUHels0QBiQISBSQKPA4KSDEAXPog1tvStUQBiQISBR4HBSQLQFj79jgU/nCtn/S+EgUkCjx6CkgWgGQBSBSQKCBR4JFS4P8BBncKaonVLOkAAAAASUVORK5CYII=;clipPath=inset(15.57% 25.67% 18.85% 6.67%);" parent="VPiFKiOyVi2eUJVmZOCR-43" vertex="1">
          <mxGeometry x="60" y="2.5" width="126.87" height="25" as="geometry" />
        </mxCell>
        <mxCell id="SiixUEzhRw_7kAcvaBEe-14" value="登入後--" style="text;html=1;align=center;verticalAlign=middle;whiteSpace=wrap;rounded=0;" parent="VPiFKiOyVi2eUJVmZOCR-43" vertex="1">
          <mxGeometry width="60" height="30" as="geometry" />
        </mxCell>
      </root>
    </mxGraphModel>
  </diagram>
</mxfile>
